<svg xmlns="http://www.w3.org/2000/svg" viewBox="0 0 1037.38 1855.87"><defs><style>.cls-1{opacity:0.4;}.cls-2{fill:#b28e5f;}</style></defs><title>Asset 9</title><g id="Layer_2" data-name="Layer 2"><g id="Camada_1" data-name="Camada 1"><g class="cls-1"><path class="cls-2" d="M1037.38,44.23v0s0,0,0-.05a.43.43,0,0,0-.05-.16.09.09,0,0,0,0-.05.49.49,0,0,0-.17-.18L975.66,4.18h0l-.06,0a.41.41,0,0,0-.19,0s-.06,0-.09,0l-.15,0v0h0L911.33,42.42a.48.48,0,0,0-.24.36.51.51,0,0,0,.13.41l54.59,57.5-54.27,4.8a.5.5,0,0,0-.43.36L897.19,153s0,.05,0,.07a.25.25,0,0,0,0,.12v0h0L911,245.33l-38.93,19.4a.49.49,0,0,0-.27.48l2.68,50.3-48.15,14.11s0,0-.06,0l0,0-25.72,14.12-43.88-14.6h-.08s-.06,0-.1,0h-.13a.41.41,0,0,0-.11.07s-.07,0-.09.05l0,0,0,0L723.33,374.6l-66.58,22.88L644.67,326s0,0,0,0l-.06-.13-.06-.08,0,0-54-45.8,0,0s0,0,0,0-.05,0-.08,0l-.13,0a.28.28,0,0,0-.13,0H590a.08.08,0,0,0,0,.05l-.06,0-62.81,49.91-38.37-55.58s0,0,0,0a.53.53,0,0,0-.14-.12.13.13,0,0,0-.08,0s-.05,0-.08,0L420,264.43l63.4-39.18a.49.49,0,0,0,.12-.74l-35.8-43.72L465,111.89v0a.33.33,0,0,0,0-.14.28.28,0,0,0,0-.09,0,0,0,0,1,0,0L431.37,26.65a.52.52,0,0,0-.45-.31.49.49,0,0,0-.47.27L381.17,126l-54.38,65.4-68.06-51.08h-.05l-.05,0-.12,0h-.09a.5.5,0,0,0-.24.06h0L210,170.36l-64.86-24.2,18.6-54.68v0s0,0,0,0,0-.06,0-.09a.45.45,0,0,0,0-.16.31.31,0,0,0-.05-.1s0-.08-.05-.11h0s0,0,0,0L100.2,35.8a.47.47,0,0,0-.48-.1.49.49,0,0,0-.33.37l-15.45,71L33.36,170.6l0,0,0,.05v0s0,.05,0,.08a.59.59,0,0,0,0,.13v0a0,0,0,0,1,0,0l8.51,78.71a.53.53,0,0,0,.2.36.52.52,0,0,0,.29.09h.12l46.21-10.63L144,272.11l-8.66,63.71s0,0,0,.06a1,1,0,0,0,0,.16s0,0,0,.08l0,.07,24.61,32.09-68.68-.88h-.1l-.1,0-.09,0a.53.53,0,0,0-.12.14s0,0,0,.05v0s0,0,0,0L66.36,433.28,32.53,497.51a.51.51,0,0,0,.13.63L74.74,532,50.57,618.56s0,.07,0,.11a.5.5,0,0,0,0,.12s0,0,0,0a.29.29,0,0,0,.07.12.27.27,0,0,0,.09.12s0,0,0,0l.09,0s.07,0,.11,0l77.82,15.13h.1a.46.46,0,0,0,.23-.06h0l45.47-24.37,49,35.53,4.18,56.92,0,0a.48.48,0,0,0,.07.2l0,0v0l28,34.22,2,54.75v0h0s0,0,0,0l12.66,68.71-43.53,3.07s-.08,0-.13,0-.06,0-.09,0l0,0a.64.64,0,0,0-.13.15s0,.05-.06.08h0a.46.46,0,0,0,0,.26s0,0,0,0h0l13.12,55.7-7.33,44.36h0l-9.59,50.3-61.76,1.76-69.56-.88-49-27.07s-.08,0-.11,0l-.09,0h0a.47.47,0,0,0-.16,0l-.12,0,0,0s-.05.07-.08.1l-.07.08L18,1040a.49.49,0,0,0,.13.59l48.34,41.14h0l.07,0,0,0a.58.58,0,0,0,.14,0h0a.32.32,0,0,0,.17,0l62.3-22.77,34.58,45.73a.48.48,0,0,0,.11.09l.06,0a.46.46,0,0,0,.23.06h0l50.5-.89,27.68,73.51-66.66-15.8a.5.5,0,0,0-.49.15.5.5,0,0,0-.11.48l16.26,52-20.57,61v0a.05.05,0,0,0,0,0l-9.63,54.53h0v0a.29.29,0,0,0,0,.13v0l0,.1v0l36.58,69.14,6.92,49-16.91,31.05h0a.13.13,0,0,0,0,.06s0,0,0,.06l-10,46.39a.51.51,0,0,0,.49.61h0l52.79-.39h.12l62.69-15.44,59,16.16,27.26,42s0,0,0,0l0,0,46.34,47.63-.71,60.53L371.71,1721a.47.47,0,0,0-.18.4.51.51,0,0,0,.19.39l42.52,32.68.2,63.73s0,0,0,0a.61.61,0,0,0,.05.18l.05.07.05.07,41.95,37.17h0l.12.07,0,0h0l.18,0a.39.39,0,0,0,.18,0h0a.53.53,0,0,0,.15-.11l.05,0h0l45-64.26L519.19,1843s0,.06.06.09,0,.08.07.11l0,0s0,0,0,0a.43.43,0,0,0,.24.08h0a.52.52,0,0,0,.21,0l49-22.5a.51.51,0,0,0,.29-.55L556.62,1752l37.09-48s0,0,0,0,0,0,0-.07l24.1-57.68,72.76-27.84a.52.52,0,0,0,.32-.37.48.48,0,0,0-.15-.45l-29.26-28.44,0,0,0,0-40.28-29.35,20.53-46.6,49,24.93h0a.46.46,0,0,0,.21,0h.11l48.69-11.28,52.6-.39L846,1557.86l-63.23,11.62,0,0a.48.48,0,0,0-.16.08l-.05,0h0l-33.14,35.58a.5.5,0,0,0,.3.84l75.77,9,13.6,52a.49.49,0,0,0,.48.38h.1l62.42-12.18h0l.15-.07h0l42.68-29.78s.07-.08.11-.12,0,0,.05-.06a.43.43,0,0,0,0-.25h0l-2.6-56.07h0l0-.11a.36.36,0,0,0,0-.11v0l-27.32-42.09-16.64-58.37,62.63-46.2h0a.52.52,0,0,0,.16-.22s0,0,0,0l0,0,11.61-56.66s0-.05,0-.08a.33.33,0,0,0,0-.1v0l0,0a.54.54,0,0,0-.07-.13s0,0,0-.07l-46.47-51.17,89.51-50.68a.49.49,0,0,0-.2-.93l-72.12-6.9a.51.51,0,0,0-.52.35l-17.77,57.32-71.49-36.41-34.13-47.77-8.26-45.88,19-33a.49.49,0,0,0,.05-.16l0,0a.66.66,0,0,0,0-.23v0l-45.36-88,58.22-19.16,0,0h0l.12-.09h0a.72.72,0,0,0,.11-.19v0a.62.62,0,0,0,0-.19s0,0,0,0h0L827,977.87a.5.5,0,0,0-.72-.31l-24.75,13.59,22.75-62.79a.49.49,0,0,0,0-.41.51.51,0,0,0-.33-.24l-37.69-8.24,57.24-48.7,0,0,0,0s0-.07.05-.1l0-.1a.85.85,0,0,0,0-.16.27.27,0,0,0,0-.09v0L824.47,818.5l73.14-17,35,17.05h0l48,21.57a.52.52,0,0,0,.21,0,.47.47,0,0,0,.3-.1.48.48,0,0,0,.19-.47l-13.88-90.48,59.83-66.74a.53.53,0,0,0,.06-.1s0,0,0-.07a.69.69,0,0,0,0-.25h0l-18.81-109.38h0s0,0,0-.05a.31.31,0,0,0-.06-.13s0,0,0-.07h0l0,0s0,0,0,0l-75.16-48.1,1-75.76,68.5-23.78.08-.06.07,0a.48.48,0,0,0,.12-.16l0,0,32.1-82h0v0s0,0,0,0a.33.33,0,0,0,0-.17V342l-21.61-75.44,22.38-63.44a.47.47,0,0,0,0-.17v0h0l-6.57-84Zm-110,1528.59L883,1586.54l30.78-57.06,1-1.84,26.54,40.89ZM593.17,1702.7l-13.8-17.06-17.58-21.74,41.85-13.21,13-4.1Zm-73.46,138.7-16.65-50.91,26.15-18.75L555,1753.26l-32.94,82.3ZM130.43,1058.94l25.78-1.13,32.92-1.46-24.94,47.23Zm-1.37-425.78-7.82-12.84-19.75-32.44,71.83,21.55ZM419.47,265.37l68.19,9.56-17.73,51.2-5.88,17-16.56-28.87Zm69,10.25,37.68,54.6-24.8,5.44-36.44,8,4.86-14Zm102.21,5.73,52.67,44.72-18,12.86-38.06,27.19,3.14-78.49ZM827,1614.58l31.79-15.41,22.86-11.09,6.91,23.22,12.62,42.37ZM130.5,1057.94l22-29.09,8.57-11.33,14.68,19.87,13.27,18-50.29,2.22ZM89.14,170.56l-4.09-61.09,43.47,76.47Zm-3.28-61.7,2.7,1.76,55.37,36-14.38,39.08L119,167.2Zm880.77-6.12L974,150.89,980.17,191,962.51,183l-29-13,1.23-2.49ZM896.46,636.48l-2.59,2.3-1.8-19.5-3.51-38,53.8,14.33Zm69.35,112.1-15.16,1.34-38.56,3.42V692l50.45,53.15ZM816.15,1230.49l-22.47,19.78-6.93-5.73-28.29-23.33,41.87,5.38,17.67,2.26Zm30.22,113.8L797,1333.78l46-46.2,10.16-10.19,24.7,73.61Zm50.13,124.55-36.26,44.3-16.47-28.33,18.75-5.68Zm-48.26,88.35,12.27-42.58,52.66,12.21ZM415.43,1753l11.31-74.6,44.47,28-41.79,34.93ZM238.58,1486.66l-31.64-36.83,72.53,26.93Zm-31.38-37.8,69.86-12.29,1,10.9,2.57,28.65-52.56-19.52Zm-4.34-138.49,23.4-11.6,22.37,37.74-85.06-6.65Zm-30.18-34.68,59-24-5.6,45.7ZM234.1,964.4l61.14-17.26-12.38,49.18-30.19-19.76Zm-158-432.86,30.34-43,3.07-4.36,26.64,71.1-53.32-21ZM86.43,426.85l42.29-15.46L109.4,482,67.66,433.71Zm183.3-214.32-42.29,3-16.32-43.29Zm79.6,36.1-47.75-22.15L272.48,213l54.12-20.31Zm178.15,82.8,58.43,35.77L525.78,421Zm427.13,7.77-16.1-37.81,16.11-10.46,21.69-14.07-11.23,86.93Zm-60,300.28,48.67-43.33,31.2,55.69ZM974,652.78,911.85,690l-17.63-49.56,53.46,8.27Zm-322.2,803.31,37.6-41.66,6.72,33.42,7.72,38.45-54.18-27.85ZM279.88,1230l1.86-.83L287,1249l8.95,33.72L233.39,1251Zm.55-104.32-11.25-38.94-6.82-23.62,23.39,14.47,55.67,34.45-34.86,7.79ZM403.23,362l-7.57,14.72L356.5,317.82l65.89,6.92ZM743,444.44l40.91-30.64,1.18,45.79.7,27.15L765.29,466.5ZM883.49,694.25l-39.14,5.59,12.84-15.49,36.1-43.54,17.62,49.52Zm18.64,5.84-49.39,52.72-9-51.87,66.53-9.51Zm-168,575.6,59-24-5.59,45.7ZM518.49,1634.76l-45.92,69.86.42-56.35Zm.24-2.43L457.67,1575l36.05-27.6,2.17-1.65,5.34,20.25ZM313.49,740.06l19.34-32.69,56.9,68.19-86.05-18.91ZM137.19,555.17l-26.65-71.12,39,18.52,25.3,12L139.1,553.12Zm-4.69-83.73-22.09,10.7,19.26-70.44,33.83,44.73ZM393,377.53l-69.5,8.88,24-51,8.09-17.18,39.28,59.07ZM869.73,641.15l-66,5.11L824,596.77l67.88,42.66ZM685.86,1217.7l-35.16-16.85,90.21-31.55-39.2,56ZM567.2,1613.58l-43.45-42.45-26.51-25.9,35.55-5.59,7.39-1.16,26,72.35ZM317.43,1421.41l40.76-30.06,27.14-20,1.62,56.18-34.52-3Zm37-455.31-32,68-38.41-36.8ZM215,456.74l34.33,73L176.5,514.09Zm-63.62,45.62L110.8,483.07l53.1-25.72L175,513.54Zm24.51,10.78-.22-1.1L164.87,457.1l49.3-.86-16.31,24.27ZM291.61,289.43l3.36,8.09-52.8-25.3,41.07-3Zm-58.08,26.19,7.11-43,53.89,25.82-3.6,1ZM589.64,435.38l42.72,61.12-74.72-13.07,4.36-6.55Zm211.3,214.41,1.95-2.18L842,699.88l-77.16-9.74ZM657.31,1045.18,700,954l23,68.61Zm130.25,253.67,7.81,34.7-70.27-3.73Zm-.26-810.06,41.94,12.81-18.37,31.8-18.45-34.9Zm48.84,89.73-12.08,16.31-12.45-59.18,35.86,27.56ZM739.49,757.15l-36.21,42.72-37-81L731.62,753Zm-17.1,573.71-18.16,46.58L646,1344.38l47.74-8.45Zm-32.84,81.43-43.45-66.71,32,18.2,25.72,14.6-5.15,12.22Zm-235.2-18.92-66.41,33.89-1.62-56.2,28.49,9.34ZM823.17,595.46l-27.76-2.76-38.18-3.79,53.32-53.47,6.19,29.46ZM729.79,652.6l26.47-62.34,45.68,56.15ZM648.9,1201.81l.57,79.1-30.42-34.86-10.7-12.27,33.3-26.26Zm-313.63,49.34,10.86-4.35,26.71-10.72-.27,67.91-3-4.27ZM735.84,533.34l14.55,41.22,5.07,14.34-90.87,14.22,27.62-27Zm-8,120.32-62.33,63.13-6.72-24.53L648,653l43.59.36ZM645.15,778.15l-13.76-5.25,33.77-54.09,37,81.08Zm59.44,92.24-40.21,28-.74-56.56,29.6,20.68Zm-60.45,472.85-64.9-43.81,70.18-16.52-2.64,30.18ZM456.58,532.05l36.12-47,23.82,54.83ZM664.29,718.33,630.5,772.44l-65.86-46.86Zm-157,577.53,44.33-44.11,25.64,47-79.69,6.77ZM386.5,1078.3l19.69-5.74L459.54,1057l-27.27,68.37-7.83-8.06Zm35.41-64.93,41.7-20.32-2.23,37.89-1.45,24.55-63.07-29.92Zm36.23-315.86-51.63-88.64,83.38,52.61L471,682.9Zm52.62-116.12-.39,2.61L457.1,533.12l59.66,7.75Zm96.66,109.05,55.91,27-98.55,7.17Zm-86.86,129,62.91-16.13-17.34,33.32-21.19,40.73-35.13-55.16ZM509.8,821.2l20.35-57,41.14,29.57,12,8.61-24.09,6.17ZM460.31,717.59l-1.64-18L528.72,763,465,769.12ZM405.46,606.84,392,540.75l74.9,63.66-11.52.46ZM582.72,920.68l6.78,7.46-61.77,49.09,17.56-97.75Zm1.67.35-38.53-42.42,11.39-4.11,54.83-19.76L590,927.21Zm-56.91,58.3,58.43,35.76-60.13,53.82Zm.39-.94,61.81-49.12-3.4,84.88Zm84.26-124.73L546,877.49l38.42-73.86Zm-27-50.92,44.81-28.52-17.25,78.31L596.83,824ZM530.64,763.3,563,726.21l20.59,75.13-23.62-17ZM559,645.89l-47.14-60.21,66.57,8.6-.17.46Zm-89.66-41,41.22-19.21,46.92,59.92Zm88.24,41.86L491,660.8l-21.88-55ZM456.4,533.84l53.45,51-41.31,19.25ZM562.65,724l-45-39.55-25.94-22.81,67-14.15.53,10.21Zm43.93-34.19-42.92,34.35-3.93-76.11Zm-38.47-65.28,11.24-29.84,66.57,57.19-86-5.46ZM467.82,605.37l21.8,54.76L406.68,607.8Zm22.88,56.71,70.62,62.1L459,698.08l30.45-34.54Zm71.6,63.38-15.23,17.47-17.21,19.74-70-63.33,62.81,16Zm-7.46,395.9-37.45,65.85-23.86-54.91,28-5Zm51.88,113.15L578,1298.08l-25.54-46.86,1.5-.46Zm-157.16-27,16.85-20.32L469,1255.4l-46.48-15.3Zm17.82-21.12,49,2.39L470,1254.6l-.25-6.54Zm.26-1,25.16-52.28,23.75,54.67ZM492,1131.34l-58.87-5.48,27.24-68.29Zm0,1-25.24,52.44-33.46-57.91Zm-21.49,123.18,46.71-66.26,13.52,24.63,20.08,36.57Zm47.55-66.81,51.9-7.79-18.49,68.66ZM461.23,1057l63.28,13.45-31.64,60.35Zm53.28.21,9.5,12.11-63.1-13.41,3.67-62.29ZM466,1186.11l-8,9.6-36.22,43.7-36.71-79.27,69.82,22.42Zm3.53,71,25.9,48.67-62,11.13L456,1279.59Zm22.64,40.42-21.81-41,80-5-54.08,53.82Zm84.55-54.83-24.31,7.48,18.49-68.68,35.93,51.93Zm-58.45-55L555.62,1122l14.46,57.9Zm-24.53-56.44,31.55-60.18L555,1120.31ZM641.21,847.05l21.42-5.59.75,56.7-49.5-44Zm-27.7,6.19,17.31-78.56,31.59,65.81Zm-6.17-164.07-46.76-41.68,85.61,5.43-23.33,21.77Zm55.12-84.88-15.33,47.33-66.42-57.07,65.81,7.84ZM511.29,584.6l6.4-43.19,59.86,51.74ZM455.24,533l12.19,70.61L392.38,539.8l33.74-3.66Zm88.43,345.79-43.31,33.66-11.63,9-2.8-26.67-2.26-21.53L503,875.05ZM489,922.52l55.25-42.93-17.54,97.57-34-49.26Zm37.48,56.55-.88,46.26-.82,43.3L465,992.55l36.79-8.07ZM432.28,1127l33.5,58-80.48-25.84,32.82-22.45Zm-10,114.06,25.36,8.34,21.14,7-36.05,59.76-3-21.77Zm41.15,71.47,31.89-5.73-39.59,85.07L433.09,1318ZM587.51,1015.9l68,30.28-47.57,44.28L591,1028.56Zm19.41,74.79-80.63-20.89,45.76-41,14.43-12.91,15.72,57.51ZM587.29,1014l3.14-78.49.26-6.29L643.36,974l-18.24,13Zm3.9-85.67,72-28.23-19.27,73Zm14.65-6.82L591,927.35l22.09-72.52L663,899.12Zm23.91-148.4-38.08,24.24-6.94,4.42L564.07,726.4,597.28,750Zm97.73-120.47L648.06,652l15.32-47.32ZM595,541.35l66.71,61.83-81.88-9.75L584,579.09Zm-162.6-61.91L454.92,532l-43.29,4.69-19.44,2.11,19.15-28.31ZM343.5,464.67l41.6-13.83,5.46,86.7ZM390.77,540l13.5,66L334,543.86ZM457,697.46l-62.61-21.29,11-67.35Zm.64,1.27,6.3,69.24-68.73-90.46Zm8,71.34,60.82-5.84,2.79-.27-12,33.65-8.32,23.32-2.78-3.26Zm43.52,52.85,8.46,13.3L544,877.8l-60.12-5.51L507.49,826Zm-43.23,95.84L420,912.33l62.72-38.76,5.07,48.26Zm22.64,4.75,37.68,54.6-25,5.49-36.23,7.95,4.86-14ZM463,992.23l-66.18,32.24,26.55-51.59Zm-76.81,85.11,9.87-51,62.9,29.84Zm-.17,1.92L404.21,1098l27.47,28.27-39.81,27.23-7.18,4.91,1.1-64.31Zm34.73,161.49L407.17,1259l-33.6,45,.08-20.08.19-48.06,11.57,1.19Zm.6.87,3.2,23,7.29,52.39-57.92-11.75Zm74.7,66,17.75,66.69-57.24,18.15Zm1,0,28.83,24.54,27.55,23.46-38.71,18.35Zm110.67-72.94L649.05,1282l-70.16,16.53ZM571,1179.53l-14.5-58,65.84,25.7ZM556,1120l-2.42-4-27.24-45.16,60.43,15.66,19.56,5.06-19,10.73Zm99.73-74.8-68-30.28,56.06-40Zm8.75-328.37-52.3-25.22-3.93-1.89,38.88-36.3,9.26,33.85Zm-.09-112.66,91-14.23-26.53,62.45Zm-68.15-63,66.4,9.71v51.84Zm-2.19-.23-13,44.68L578.87,593l-60.2-52H594Zm-138.26-9.48L433.24,479l58.64,5.46ZM343.06,465.82,390.3,539l-57,3.92,4.35-34.47ZM488.35,798.4,508,821.52l-60.19,6.71,16.92-57.54Zm-40.24,30.8,60-6.68-22.64,44.39-2.5,4.9-28.71-35Zm-28.64,84.07,68.19,9.55L469.93,974l-5.88,17L447.58,962.3Zm43.45,77.79-39.28-19.17-4.44-57.08Zm-78.49,170,36.45,78.7-25.26-2.62-21.71-2.24,4.22-29.65Zm47.07,156.86-45.41,51.35L373.7,1306.2Zm.73.68,22.66,73.89-68.21-22.37Zm122,36.27-50.63-43.1-6.13-5.22,11.08-.94,68.72-5.84-12.73,30.44Zm96.21-71.73,71.45,46.8-76.73,13.59ZM607.74,1233l-35.86-51.84,55.93,14.54,20.48,5.32Zm-35.8-52.86,51.32-32.32L634,1170l14.5,30-37.38-9.71Zm-15-59.53,11.36-6.42,39-22,15.39,54.12Zm87.95-147.42,19.19-72.7,35.19,51.93Zm19-132.43,2.88-2.88L702.69,802l2.25,67.44Zm18-19.4L663.27,840l-31.63-65.89L655.08,783l47.17,18ZM809.67,534.9l-53.34,53.49-10.88-30.84L736.77,533ZM639.54,546.48l-43.85-6.41,37.68-42,28.82,51.73Zm-82.75-61.81,37,55.26H518.29l28.28-40.6Zm-63.2-.15,62.25-.23-38.41,55.13ZM460.4,409.68,492,483.45,433.16,478Zm-28.66,68.88-40.16,59.37-2.41-38.33-3.05-48.52,30.79,18.55Zm-88.66-14.81-19.51-75.07,61.06,61.26Zm-20.79-76,19.64,75.59-79.34-49.09Zm-41.31,91L342.15,465l-3.61,28.6-6.13,48.57-50.19-62ZM403.47,606.63l-91.15-13.17L333,544.27ZM390.59,775l-57-68.34,59.7-29.36Zm2.18-43.14,1.47-53.94,69.36,91.31-72,6.56Zm71.09,38.35-17,57.66-54.68-51.13,47.32-4.32Zm18.5,102.37-62.91,38.87,27.88-81.65Zm-60,100L403.17,1010l-7.51,14.6L356.5,965.71Zm-37.18,104.57-61.22-42,71.1-9.09Zm-.49.87-18.34,14.66L343,1111.42l-19.58-75.33Zm-41.27,34.27L385,1079.1,383.7,1158l-33.81-38.36ZM373,1234.21l-46.38-51.68,56.95-22.43Zm-11.79,5.46-26.29,10.55-8.45-66.36,46,51.28Zm-26.79,12,37.43,53-66.53-19.06-7.56-2.16Zm-27.29,104.09-9.8-71.36L372,1305.77Zm206.53,19.65-14.49,44.42-.79,2.41-41.6-28.79ZM498,1423.21l-14.57,38.27-26.74-66.85Zm-14,39.49,14.42-37.9,12.72,61.09L485.55,1464Zm30.54-87L549,1417.16l-49.61,5.28Zm3.5-2.21,35.7-16.93-4.28,59.77-34.32-41.47Zm37.06-18.35,20.47-48.93,2.59-6.2,64.94,43.85-55.37,7.09Zm88.09-10.29-49.19,53.89-38.68-42.62Zm-19-197.22,69.11-1.14-43.86,53.42L632.66,1165Zm60.57-51.86-61.09,50.5-15.43-54.3Zm-76-4.77,47.41-44.13,29,47.91-67.17-3.32Zm35.9-116.63,54.34-20.76-42.5,90.81Zm54.91-23.16-9-13.22-26.1-38.52,40.31-28-4.31,65.47Zm57.53-258.28,5.89-1.62-23.08,65-73.4-38.38Zm5.75-2.62-96,26.52L729,653.9l24,25.73Zm-32.86-36.68,3.57-.3,68.07-5.85-37.86,42.35-16.66-17.85Zm27.2-63.66,65.81,6.54-20.3,49.4L760,593.23ZM734.4,533.36l-70.78,69.31V550.83l45.28-11.18Zm-139.64,6.26-36.89-55.14,74.62,13.06ZM459.4,409.49l-27.2,68.18-31.78-19.14-13.86-8.36,6-3.33Zm-197,5.77,23,14.24,56,34.68L306,472.1l-25.55,5.71-11.25-38.94Zm17,62.35-63.25-22.08,45.18-40.48,17.09,59.14Zm0,1.07L250.3,529.35l-34.23-72.76Zm.8.61,34.23,42.26,17.17,21.19-80.5-12.69,20.88-36.42Zm51.9,64.54L311.44,593l-59.79-61.81Zm-19,50.74,91.46,13.21-11,67.68-22.1-22.23ZM418.48,911.23,394.42,854.4l51.87-24.63Zm-.38,2.4,4.52,58-65.9-6.93Zm-70,205.55,35.2,39.93-56.86,22.4L343,1113.34Zm164.09,366.6-7.49-35.94-5.49-26.38,8.16-.87,41.65-4.44ZM554.8,1356.9l38.43,42.34-42.72,17.55Zm150,21.88,8.32,2.71,54.64,17.8-77.26,13.42Zm.37-.93,18.15-46.56,45.28,67.22Zm17.67-48.47-71.34-46.74,80.73-6.4L727,1305.47Zm-71.6-47.72,50.59-54.91,30.15,48.5Zm-.74-.67-.57-79.41,51.15,24.5Zm-25.59-134.42,60.9-50.35,8.07,49.21Zm61.22-52.31-18-29.82-11-18.14,65.52-22.51Zm14.55-143,5.24-79.7,34.47,37-38.59,41.45Zm3-149.24,35.1,35.1-32.86,32.1Zm82.46-313.28L810,533.91,737.34,532l9.72-8.61Zm-50.53,42.67L695.15,498l46.45-52.16Zm-.65.76-70.8,17.47,30.4-50.87L725.11,524Zm-41.41-33.67-30.42,50.92-28.82-51.73,18.55.25ZM556,483.29l-21.76.08-40.57.15,31.6-60.28,21.41,41.82ZM386.19,449.23l1.63-11.64,8.29-59.16,63.19,30ZM289.18,346l-5.27,2.33,12.38-49.18,57.79,18.12Zm65.29-27.81-32,68-38.41-36.8ZM283.4,350.13l37.69,36.11.65.63-59.39,26.36,20-59.82Zm29,245.24,56.72,57,23.81,24-59.8,29.4-16.88-89.89Zm133.86,233.3-1.51.72-50.5,24-2.65-75.83Zm-44.88,97.59L355.92,964.1l-5.1-66,66.6,14.75Zm-45.81,39.86,39.28,59.06-3,.39-68.37,8.73,24-51Zm-33.28,69.49,19.64,75.6-79.34-49.1Zm11.6,214.51-24.3-10.39-26.66-11.41,42.47-44.88Zm-16.61-6,16.29,7L297,1282.79l-14.18-53.43Zm-20.9,40.74,9.76,71.1-55.72-19.09ZM308,1356.38l64.78-49.93,12.44,63.29-42.76-7.4Zm124.84,49.12,21.84-11.15-33.06,75.55-33.33-41.67Zm50.8,58.1L510.94,1487l-49.36,12-1.82.45Zm27.71,24.3-1,3.75L496,1543.84l-36.42-43.37ZM583,1564.52l-14.67,49.34-26.89-74.77Zm-84.76-20.46,54.83-37.87,6.4-4.42-19.31,35.69Zm-1.25-.36,3.54-12.89,11.8-43L531.9,1493l27.86,7.38Zm52.64-124.56,10.68,80.36-47.59-12.6Zm94.49-73.81,4.11,53.61h-53Zm5.12,53.74-4.06-53,43.23,66.37-28.12-9.59Zm44.4,14.1L769.5,1400l16.39,37.94L692,1413.45Zm93.41,25-16.2-37.51,29.56,17.75,28.61,17.17-36.8,2.27Zm-16.27-38.71,46.8-25.56L830,1435Zm-.85-.68-45.39-67.38,92.28,41.78Zm-46.12-69.45,9.35-52.95,53.51,21.78Zm-21.11-103,53.27-5.26-23.27,53.53-10.62-17.09Zm-51.82-26.62,43.67-53.18,46.3,21.71ZM706.17,870.4l29-28.3,3.88-3.79,1.5,69ZM739,836l-17.2-17.2-18-18,35.93-42.4-.44,45.33Zm25-144.4,33.19,42.78,2.54,3.28-58.68,18.6Zm128.3-51.15-49.17,59.31-39.29-52.46,51.68-4ZM825,595.22l23.31-31.49,38.11,16.74Zm22.23-33.44-28.09-21.59-7.66-5.89,18.34-31.73.26.87ZM829,500.48l-42.22-12.89L784.91,415l31.56,61.19Zm-66.47,7.85-25.89,22.92,6-85.74,42.93,42.43ZM556.86,482.8l-9.22-18-21.47-42,62.63,12Zm-64,.06-31.64-73.8,63.28,13.44Zm-97.75-104.6-9.92,70.83-61.51-61.7L350.24,384ZM349.85,250.67l5.09,65.84-58-18.19,12.81-11.53Zm-53.72,47-11.89-28.62,42.56-12.2,21.53-6.17-12.84,11.55ZM228,217.54l54.42,50.78-41.75,3ZM239.53,271l-48.64-21.52L226.81,217l11.53,48.92Zm.16,1.16L232.62,315,191.3,250.75l17.55,7.76ZM224.1,367.28,282.4,350l-11.79,35.34-9.28,27.81L241.76,389Zm-8.84,87.64L190.85,408.5l69.48,6.05Zm-1,.32-8.55.15-40.65.71L190,409Zm36,76,27.15,28.07,32.69,33.79-87.34-14.47ZM417.69,911.93l-66.42-14.71L393.61,855Zm-128.51,82-5.27,2.34,12.38-49.19,57.79,18.12Zm6.18,290.58-45.73,51.74-22.39-37.77Zm65.42,82,23.78,4.11-8.83,6.52-59.28,43.73-9.12-63.61Zm-45,55.89,19.61,44.32-56.7-30.68Zm1.06-.06,23.33,2.05,46,4-49.49,38.64L326.46,1444Zm138.76-27.81,27.15,67.88-60.27,7.81Zm85.55,143.18,5.24-9.68,14.42-26.66,21.84,61.73Zm52.36-137.54-3.21,66.35-39.57-48.79Zm1,.45,53.28,57.61-56.51,9Zm53.78,56.67-53.07-57.38H648.3Zm139.76-18.21,42.24-2.61,11.86,46.67-15.56-12.68Zm43-3.78-4.4-21.72-8-39.4L885,1417.65Zm-97.18-213.07-31,3.06,39.1-55.85,14.15,50.59Zm-47.17-126.51,54.31-2.91-46.27,52Zm.26-1,36.51-70.44,18.07,67.52Zm13.91-141.16,54.86,24.19-31.94,44.07Zm39.88-43.91,15,67L700.9,952.48Zm-.08-144.28.06-6.45,26.75,49.12L740,835.92Zm.31-8.09,58.67-18.6L768.08,807l-19.35-35.53Zm24-66.12,77,9.71-41.3,36.27ZM887.55,581.23l5.32,57.62-67.8-42.61Zm-47.27-46.7L830.71,502l16.15,3.64,84.26,19-82.64,37.82Zm-10.59-34.9-44.62-86.52,57.48-18.92ZM741,444.94l-46.41,52.12-16.81-49.2Zm-64.1,3.43,16.79,49.15-59.18-.81,24.5-27.94ZM589.1,433.89l-62.75-12,59.94-53.65ZM524,421.38,460.91,408l3.67-62.29L515,409.94Zm-60.4-76.22-2.23,37.89-1.45,24.55-63.07-29.92,25.05-12.2Zm-107.69-29-5.1-66L417.42,265l-16,13.35Zm-72-48.1-12-54.3,76.94,35.7Zm-1.21-.84-54.45-50.81,42.51-3ZM232,315.83l-51.48.43L190.28,251Zm2.11.67,61.14-17.25-12.38,49.17L253.49,329.2Zm-10.86,51.31,37.15,45.74-69.43-6,11.47-14.11Zm-85.3,188,37.68-40.63,45.21,63Zm38.89-40.66,72.64,15.6L222,578.11l-21.4-29.81ZM285.65,647.79l25.74-52.36L331.9,704.66l-46.14-56.73Zm76.82,122.8,27.58,6.06L327.12,839l-23.51-81.32Zm28.13,6.93,1.45,41.61,1.2,34.4-65.36-13.9,31.77-31.47Zm2.17,76.93-42.32,42.18-22.76-56Zm-42.92,44.11,5.09,65.84-58-18.19,11.65-10.48ZM295,945.41l-52.8-25.3,41.07-3ZM283.4,998l37.69,36.11.65.62-59.39,26.36,19.83-59.44ZM342.06,1113l-16.55,68.28L281,1126.61l49.45-11.06Zm-59.95,114.78-23.42-30.26-14.38-18.59,80.34,3.9Zm23.35,129-50.25,25.6-5.07-44.56Zm-27.37,80.09,11.5,6.23L335,1467.62l-53.32,8.66-1.45-16.07Zm109.3-8.1,33.24,41.56-82.76-2.89Zm35.55,42.44,59.52-7.71-23.95,36-7.67-6.08Zm36.16,30.31,36.36,43.3-15.28,11.7-22.76,17.42.52-22.23Zm13.77,145.75-15.15-70.84,61,57.24Zm47.13-14-10.68-40.5-12.2-46.2,70.38,68.75-14.86,5.62Zm47.78-17-7.21,46.53L520.71,1634Zm51.5-55.72-49.79,53.07,1.07-3.59L584,1564.75l21-2.52Zm30-103.21v-57.17l39.47,13.45-26.43,29.28Zm41.14-42.55,58.41,53-44,18.79Zm1-.4,94.17,24.57-35.87,28.31-17.23-15.63Zm95,25.2,12.65,46.85-48.36-18.67Zm13.76,47.14-12.59-46.64,54.07,44Zm78-134.33,7.32,64.44-66.47-43.53Zm-61.45,19.69-91-41.2,69.9,3.72,17.07,30.34Zm-20.5-39-7.79-34.63,63.09-20.86L822,1307.24ZM738,1273l-4.24,1.73,19.84-45.63,3.4-7.82,35.73,29.46Zm3.71-105.5-46.45-21.78,46.45-52.16Zm-17.35-144.76L750,987.43l6.38-8.8,27.09,80.92-12.32-7.68Zm125-459.67,23.53-10.76L931,525.76,887.84,580Zm-18.78-62.74,12.86-105.45,45.37,71-43.55,25.77Zm45.06-184.12L936.88,302l-43.51,76.67Zm13.44,148.22-45.18-70.68,48.76-13.21ZM920,333.82l17.87-31.49,20.25,47.54,6.57,15.44-70.45,13.9Zm-130.1,76.66-4.8,1.58,15.81-66.66,41.41,47.83Zm-113.7,37.27-42.64,48.64L590.7,435.16l78.24,11.53Zm-86-14.08-2.82-65.76,68,30.28ZM396.84,376.58,423.39,325,463,344.33Zm-40.12-59.74,61.38-51.1,4.52,58Zm-5.45-67.51,42.34-42.19L417.69,264ZM131.72,187l78.05-15.54,16.51,43.8Zm94.39,29.25L190,248.92l-14.15-14.71-44.52-46.27Zm-36.77,34.22-9.74,65.06L145.32,272Zm43.92,66.66L282,349.05,223.88,366.3l5.83-30.56Zm-11.1,50.39L190,407.11l-28-37.85,1.75-.05ZM136,556.26l-20.77,17.55-14.7,12.41L76.28,532.69Zm2.17.69,7.45,2,75.17,20.26-46.08,29.4Zm85.19,22.81,48.43,8,39,6.46L284.93,647l-50.7-55.4Zm62.45,69.87,46.3,56.92-29,49-15.43-94.37Zm62.48,249-14,12.57-38.23,34.42L284.24,917l42.56-12.2ZM282.4,997.87l-11.74,35.21L261.33,1061l-19.57-24.11-17.66-21.74Zm-22.07,64.57-45.07,40.38-24.41-46.43Zm.93.51,17.09,59.13,1,3.43-63.25-22.08Zm-17.69,116.61,37.72,48.74-11.3,5.08-37.12,16.71,2.58-17Zm-10.92,72.13,62.57,31.8-68.18,14,3.75-30.61Zm23.15,131.49,50.55-25.74,9.07,63.36-6.6-4.17Zm2.5,2.76L315,1421.68l-37.17,13.67-21.89-50.93Zm162.05,85.37-66.84,54.49-16.37-57.39Zm1.79.54,35.62,28.27-38.84,23.68,1.45-23.36Zm36,29.23-.78,33.52-.9,38.93-37.33-48.66ZM472,1648.82l-.42,56.59-44.27-27.86Zm-7.49,133.36,8-75.2,45,15.13Zm52.92-58.49-12.53,54-2.8,12-37.29-6.38Zm-3.57,19.82,4.82-20.75,36.59,29.08-52,37.28Zm4-22.33-45-15.14,46.31-70.44-.14,8.89Zm1.38-26,.9-60.32,40.09,28.9-41.36,56.55Zm46.25-57.69,3.29-21.21,47.51,29.36-54.75,17.28Zm3.69-22.13,50.85-54.2-3,83.75Zm-7.9-116.31-10.61-79.8,39.42,48.61L565,1495Zm33.87-31.36,53.06-8.49-7.09,52.2-49.24-43.19Zm48.69,31.11,5.35-39.43,54.08,27.79-61.17,24.45ZM859,1512.93l-57-25.34L827,1486l15.71-1,6,10.31Zm-15.59-29-11.94-47,65.12,30.89-45.62,13.81ZM832,1436.06l53.79-17.61L897.21,1467Zm44.79-84.26-58.62,20.73-4.82-8.57L797,1334.8l47,10ZM832,1283l-43.54,14.39,5.61-45.75L852,1276.4Zm-89.33-115.67v-73.85l42.81,42.32ZM724.45,1024l59,36.75-41,30.69Zm17.26-114.69,42.7,10.77-27.72,56Zm-.19-2L740,838l43.91,21-24.49,27.92ZM740.35,837l27.55-27.93,16,48.8Zm60.14-97.7,22.61,78.2-54.26-9.75Zm1.11-1.64,26.86-23.58,14.34-12.6,9,51.68-48.94-15.11ZM911.09,692v61.38H853.57Zm-.17,62.38-13.49,45.67-43.84-45.67Zm1.05,0,53.22-4.71-66.62,50.07ZM831.33,501.09l55.58-32.89,2.5-1.48,42.07,56.93Zm58.75-35.78,3.57-83.7,39.25,66.2Zm48.84-165.38,41.25-105.12-3.72,80.76ZM919.2,220.49l14-49.55,45.69,20.55,1,.44-18,14-49.33,38.34Zm60.48-27.17L937.84,299.94l-25.63-54.17,22.07-17.16Zm-59.8,71,17.29,36.53L876,315.14l35.58-68.4ZM892.6,379.56l-19.19,5.2-29.42,8,31-75.32Zm-150.1,64-18-67.43,59,36.74Zm-19-67.3,18.11,67.68-63.48,2.92,11.34-17.65Zm-47.12,70.52-27.06-4-58.09-8.56,28.33-15.44,36.6-19.94.67,1.58ZM526.49,331.17l-.88,46.26-.82,43.31L465,344.65l36.65-8ZM423.64,324l-4.44-57.09,43.72,76.26ZM394.42,206.51l51.87-24.63-27.81,81.46Zm-.25-1-7.87-51.69-4-26.38,51.89,43.3,12,10.05Zm-1.4,1-42.32,42.17-22.76-56ZM166,225.45l23.11,24-44.22,21.64-14.49-82.66Zm15,91.81,51.29-.43-1.85,9.69-7.51,39.38-10.35-12Zm41.16,49.28-60.38,1.73,18.31-50.53Zm-33,41.92-24.94,47.23-33.76-44.64,26.08-1.15ZM109,483.1,75.69,530.36,67.44,435Zm-7.59,103.71,35.49-30,36.46,51.57ZM284.9,650l17.36,106.19L257,736.38l20.7-64.11ZM259.27,791.55l43.35-33.71,5.09,17.6L326,838.69l-55.88-39.47Zm67.33,49,22.73,55.95-46.84-21.73-30-13.91Zm22.24,56.83L283.94,916l-12-54.3Zm-125.6,118.3,37.15,45.74-69.43-6,11.47-14.1Zm91.22,153.56,10.2,12.52-80.47-3.91,35.92-50.75ZM163.91,1330.89l85.19,6.66,3.35,29.46,1.73,15.21-20.81-11.84Zm307.83,315.88-43.95-30.31,28.85-40.28Zm-8.82,137-47.48,33.51-.2-62.12Zm-47.32-29.57,34.31-28.68,21.52-18-3.93,37-4.08,38.39-34.48-20.7Zm103.45-32.37,41.3-56.48-4.71,85.56Zm100.46-162.31L584,1563.75l-21.81-61.66,21.62,21.63Zm0-1.45-57.84-57.86,28.92-31.31Zm129.64-89.32-9.68,56.48-34.1-37.78Zm2.07.27,48.11,18.56-2.81,14.86-4.22,22.28-14-18.92Zm42,56.3,7.07-37.34,58.23,25.88L824,1519.87Zm55.21,33,54.44-25.46,10.72-5-31.74,58.84-3.5-3Zm-38.76-375.64-52.52,37.09L742.91,1169l5.42,1.11ZM742,908.34l42.29-48.2.38,59Zm80.84-89.88L785,857.88l-16.11-49.11Zm-21.46-79.84,50.39,15.57L823.9,816.68,812,775.51Zm111.51-47.28-.47-.49,62.43-37.42-8.32,94.41Zm62.47-40-16.11-28.77-15.09-26.94,63.07-22.11L980,640Zm-86.46-71,43.5-54.67,10.42,69ZM894,380.26l70.54-13.92-31,80.57ZM965.94,365l10.79-83.59.56-4.34,56.41,64.86L1023,345.52Zm15.17-174.5-3.74-24.32-9.87-64.34L1028,119.18Zm-48.48-20.87-17.85-8.68L898.62,153l66.89-50.27Zm-.37.93-20.52,72.74L898.3,154ZM790.38,385.25,784.28,411l-27-80.54L800,344.66ZM677.22,446.32,657,398.44,722.44,376Zm-296-318.92,11.9,78.22-65.38-13.9ZM270.49,211.84,211,170.93l47.06-29.44ZM85.7,107.57,162.54,92l-18.27,53.7Zm2.46,130L34.79,171.41H88.16Zm1,0V171.64l39.68,15.5L91.23,234.88Zm60.56,41.74,29.41,37.32L168.94,321l-32.49,14.09,8.43-62Zm11.35,90.39,14.68,19.87,13.27,18-48.54,2.14-10,.44,22.2-29.35Zm-6,6.27-25.64,33.9L92.5,368.42l67.58.86Zm-63.53-7L110.45,390l18.14,20.33L67.66,432.65ZM222.6,580.36l61.27,66.95-59.32-2.64-1.64-54Zm59.79,335.86-41.75,3L228,865.43Zm-41.75,4.26,53.89,25.82-2.45.7-58.55,16.52ZM233.26,965,282,997l-58.12,17.24Zm-77.92,58.39-25.91,34.27L92.5,1016.31l67.58.86ZM190,1056.89l24.32,46.24-49.2.86Zm52.6,122.52-10.7,70.52-39.1-35.38,5.73-4Zm-70.84,97,53.5,21.78-62.86,31.17Zm28,123.16,15.09-4.35,39.64-11.45,22,51.24-6.44-3Zm5.62,50,10.2,11.87,21.56,25.1-48.06-7Zm25.38,75.26-41.13-44.24,7.66,1.12,40.51,5.94-2.48,13.11Zm9.23-37.47,40.86-9.9,5.41,14.27,6.74,17.79-25.83-10.8Zm54.09,22.17-12.23-32.26,53.16-8.64-6.66,6.67Zm60.61,16.6,25.78-21L421.13,1472l-3.24,52.27-23.55.7Zm63.64-.6,37.48,48.86-74.21-6,28.23-33Zm9.23,92,44,30.35-44.71,28.75Zm35.22,182.13,1.49-15.39,5.75,1,31.58,5.4-44,62.87Zm155.26-155.4,3-83.45,39.42,28.73Zm-19.44-153.8-6.81-21,49.09,43.07-20.23,45.92Zm106.12-2.22,2.84,3.14L738.8,1526l-47.1,10.91Zm45.33-19.12,2.91,4,38.58,52.33-51.21.37Zm76.6,51.29,32.8-5.76-12.31,42.7L794,1526.15Zm21,38.53L881,1587.26,841,1606.7l-14.16,6.86,20.72-54.21Zm-22,54.71-41.77-43.35,62.75-11.54Zm35.38-99.94,36.65-44.77L914,1526ZM886.59,1417l-7.36-64.71,58.13,8.15,33.64,4.72-55.24,33.92Zm-92-166.2,24.46-21.53L852,1275.3Zm-36.48-30.6,52.35-37,8.06,44.73Zm51.77-38.54L802,1180l-58.57-12,42.71-31.45,12.28,23.24Zm-24.15-47-20.47-20.24L743,1092.33l40.91-30.64,1.18,45.79Zm-1.48-75.74-27-80.55L800,992.56l-9.63,40.58Zm15.65-67.41-42.71-14.22,7.82-15.8,19.9-40.2,1.72,8ZM965.51,750.65l-32.88,66.82-34-16.54ZM968.18,740l7.64-86.7,50.28,28.88-58.58,65.34ZM890.33,466.28l42.79-17.48-.92,74.14ZM977.47,275.2,981.21,194l31,72.17-33.16,8.61Zm35.39-10.06-31.21-72.65,53,10.81Zm15.47-146.9-60.39-17.36,68.31-55.55ZM967.49,100,971,60.31l4.84-54.84L1036,44.23Zm7.32-94.42L966.49,100,912.38,43ZM912,106.46l53.22-4.71-66.62,50.07Zm-1.54,140.29-35,67.27-2.59-48.54Zm-36.25,69.9L843.24,391.9l-4.73-18-11.39-43.43Zm-48,14.2,15.92,60.67-40.73-47Zm-69.84-.11,27.09,80.92-15.16-9.44-43.92-27.34ZM587.75,367l56.07-40,11.89,70.33Zm1.93-85.65-3.4,84.88L527.87,330.5ZM419.45,263.58l27.88-81.65,35,42.77ZM446.85,180l-64.11-53.49,81.13-14.14Zm-16-152,33,83.31-33.21,5.79-48.16,8.39Zm-105,163.82-54.27,20.36-12.44-70.42Zm-195.42-5.64,14.41-39.15,63.42,23.66ZM100.18,37.11,162.2,91,85.06,106.68ZM84,108.64l1,15.15,3.12,46.62H34.78ZM42.69,249l-8.26-76.46,53.34,66.09Zm46.72-10.2,15.09-19.16,24.85-31.54,14.51,82.76Zm89.65,78.88-18.15,50.07-24.28-31.67ZM66.46,435.23l4.84,55.94,3.41,39.48-41.1-33Zm9,98,24.34,53.61L54,616.2l-2.13,1.36Zm-23,85.21,47.85-30.72,27.63,45.39Zm169.2-38.52,1.95,64.23-48-34.82Zm3,65.76,40,1.77,19.31.86L228.68,701.2ZM284,649.59l-27.78,86-27.25-33.29Zm-27.06,87.84,45,19.69-43,33.45Zm68.91,102.36-54.25,20.36-12.43-67.47Zm-55,21.57,11.94,53.81-54.45-50.81ZM190,1055l-28-37.84,60.12-1.72Zm-99.25-39-19.2,51.29-4.66,12.43L43,989.67Zm-71.67,24.1,23.05-50L65.92,1080Zm72.46-23.37,18.91,21.18,18.15,20.34-60.94,22.27Zm187.75,109.8L254,1162.23l-10.64,15L216,1104.44Zm-37.23,52L201.7,1207l-9.45,6.66L176.41,1163Zm-49.85,36.82,39.1,35.38-59.14,24ZM253.51,1383l-54.91,15.85L163,1331.5Zm-29.75,28.73,52.09,24-70.13,12.34L199,1400.27Zm-35.17,69.2,41.35,44.48-51,.37Zm43.13,44.3,2.15-11.39,4.91-25.91,18.69,7.81,34.83,14.57Zm63.14-15,20.47-20.46,20.9-20.87L352.51,1526ZM357.33,1527l59.92-1.78-1.24,1.45L380.65,1568l-26.51-40.84ZM456,1575.39l-7.11,9.93L427,1615.81l-45.14-46.39Zm-30.3,103.36-11.31,74.56-41.53-31.93Zm37.55,106-6.74,69.61-40.74-36.1Zm57.36,57.15,35.32-88.23,12.16,66.42Zm36.09-91.6,4.53-82.57.15-2.74,31.31,38.71ZM619,1644.68l42.26-54.49,28.3,27.5Zm84.75-156.63-13.07,48.79-48-24.39Zm79.17,82.65,41.63,43.2-73.74-8.73Zm57,95.57-13.27-50.73,73.85,38.91Zm62.35-12.41-19.48-65.39,61,36.45ZM944.11,1624l-61-36.46,12.91-4,45.51-14.06Zm-45.87-157-11.42-48.69,72.59,3.57Zm62.2-46.07-72.62-3.58,46.58-28.6,37.33-22.93Zm-80.58-69.62,45.64-37.45,45.65,50.25Zm64-95.5,70.14,6.71-87.58,49.59Zm-19.2,57.46-45.24,37.12-.5.41-24.62-73.37Zm-113.78-132L792.74,1147l-5.44-10.3,41.94,12.8Zm-24.09-45.81-1.87-72.6L829,1148.37ZM785.05,1060l15.81-66.66,41.41,47.83Zm57.06-20.54-40.73-47,24.81-13.63Zm-41.39-49-.53-2.52-14.41-67.5,37.36,8.16Zm-15.1-71.75-.2-32.19-.17-27.05,22.26,4.41L842,870.68Zm21.3-56-21.18-4.2,10.62-11.07,27.25-28.38,18.75,50.66Zm17.75-45.29,27.9-62.66,44.12,46Zm108.86.47,1.23-2.49,31.87-64.76,13.54,88.23Zm50.82-160.82L976,652.28l31.85-77.78,18.34,106.61Zm22.59-84.51-63.15,22.13-10.45-69.24ZM934.48,447.23l22.21-57.7,8.76-22.75L981,391.33l20.67,32.56Zm67.88-24.18L966.1,366l67.6-23ZM977.85,276.14l19.61-5.1,15.1-3.92,20.9,73Zm3.78-84.67,46.75-71.09,6.4,81.93Z"/><path class="cls-2" d="M571.79,62.55s0,0,0,0,0,0,0,0l.07,0,.06,0a.6.6,0,0,0,.22.06h.07l.11,0,55.13-20.34a.47.47,0,0,0,.31-.32.49.49,0,0,0-.07-.44L597.41.2h0a0,0,0,0,1,0,0s-.07,0-.1-.08-.06,0-.1-.06a.27.27,0,0,0-.13,0l-.12,0h0L541,10.78a.49.49,0,0,0-.36.29.47.47,0,0,0,0,.46Zm1.31-1.12,3.52-8.78L597.13,1.52l29.43,40.2ZM596.2,1.16l-24.08,60-30.2-49.55Z"/><path class="cls-2" d="M23.27,818.94l18.5,78.69a.56.56,0,0,0,.07.16h0L74.32,946.7a.5.5,0,0,0,.42.23h.09a.53.53,0,0,0,.4-.38l13.89-59.45L130,845.16a.48.48,0,0,0,.12-.22h0L145,784.47a.51.51,0,0,0-.25-.56L75,745l25.3-60.74a.49.49,0,0,0,0-.44.52.52,0,0,0-.36-.25l-65-9.34h-.09l-.09,0-.13,0a.28.28,0,0,0-.1.09s-.06,0-.08.06a0,0,0,0,1,0,0l0,0L0,745.21a.17.17,0,0,0,0,.07.28.28,0,0,0,0,.13.41.41,0,0,0,0,.11v.06Zm55,.36,9.71,66.06-63-66.06Zm-.1-1H24.7L74,746.7l1.6,27.62Zm1.17,1.39L128.82,845,89,885.77Zm49.12,23.93L79.14,818.49l-.45-7.74L75,747.38Zm-55-97.9-49.54,72L1.17,745.93Zm7,133.26,7.22,7.57L42.63,896.91l-18-76.43Zm-6,66.21L43.07,897.84l41.6-9.57,3.32-.76Zm55-101.73-53.78-97L144,784.6ZM74.34,744.07l-38.5-68.7,63.32,9.1Zm-39.4-68.26,38.61,68.91-72.26.21Z"/></g></g></g></svg>